<svg width="17" height="15" viewBox="0 0 17 15" fill="none" xmlns="http://www.w3.org/2000/svg">
<path opacity="0.65" d="M16.4688 3.32031V3.85156C16.4688 4.01758 16.3359 4.11719 16.2031 4.11719H15.4062V4.51562C15.4062 4.74805 15.207 4.91406 15.0078 4.91406H1.99219C1.75977 4.91406 1.59375 4.74805 1.59375 4.51562V4.11719H0.796875C0.630859 4.11719 0.53125 4.01758 0.53125 3.85156V3.32031C0.53125 3.2207 0.597656 3.12109 0.664062 3.08789L8.36719 0.166016C8.40039 0.166016 8.43359 0.166016 8.4668 0.166016C8.5332 0.166016 8.56641 0.166016 8.59961 0.166016L16.3027 3.08789C16.3691 3.12109 16.4688 3.2207 16.4688 3.32031ZM15.6719 13.4141C16.1035 13.4141 16.4688 13.7793 16.4688 14.2109V14.7422C16.4688 14.9082 16.3359 15.0078 16.2031 15.0078H0.796875C0.630859 15.0078 0.53125 14.9082 0.53125 14.7422V14.2109C0.53125 13.7793 0.863281 13.4141 1.32812 13.4141H15.6719ZM3.1875 5.44531H5.3125V11.8203H7.4375V5.44531H9.5625V11.8203H11.6875V5.44531H13.8125V11.8203H15.0078C15.207 11.8203 15.4062 12.0195 15.4062 12.2188V12.8828H1.59375V12.2188C1.59375 12.0195 1.75977 11.8203 1.99219 11.8203H3.1875V5.44531Z" fill="#CBD5E1"/>
</svg>
