<svg width="18" height="15" viewBox="0 0 18 15" fill="none" xmlns="http://www.w3.org/2000/svg">
<path opacity="0.65" d="M3.02539 12.3848C3.68945 12.584 3.98828 13.082 3.98828 13.5469C3.98828 14.2773 3.52344 15.0078 2.39453 15.0078C1.83008 15.0078 1.39844 14.875 1.16602 14.709C0.966797 14.5762 0.933594 14.377 1.06641 14.1777L1.23242 13.8789C1.36523 13.6465 1.56445 13.6465 1.76367 13.7793C1.92969 13.8457 2.0957 13.8789 2.29492 13.8789C2.62695 13.8789 2.75977 13.7461 2.75977 13.6133C2.75977 13.3809 2.56055 13.2812 2.22852 13.2812H2.0625C1.86328 13.2812 1.76367 13.2148 1.66406 13.0488L1.63086 12.9824C1.53125 12.8164 1.59766 12.6504 1.73047 12.4844L1.89648 12.252C2.0293 12.0859 2.12891 11.9531 2.26172 11.8203H1.53125C1.36523 11.8203 1.26562 11.7207 1.26562 11.5547V11.0234C1.26562 10.8906 1.36523 10.7578 1.53125 10.7578H3.42383C3.65625 10.7578 3.78906 10.8906 3.78906 11.1562V11.2559V11.2891C3.78906 11.4551 3.72266 11.6211 3.62305 11.7207L3.02539 12.3848ZM17.4688 6.50781C17.7344 6.50781 18 6.77344 18 7.03906V8.10156C18 8.40039 17.7344 8.63281 17.4688 8.63281H6.84375C6.54492 8.63281 6.3125 8.40039 6.3125 8.10156V7.03906C6.3125 6.77344 6.54492 6.50781 6.84375 6.50781H17.4688ZM17.4688 1.19531C17.7344 1.19531 18 1.46094 18 1.72656V2.78906C18 3.08789 17.7344 3.32031 17.4688 3.32031H6.84375C6.54492 3.32031 6.3125 3.08789 6.3125 2.78906V1.72656C6.3125 1.46094 6.54492 1.19531 6.84375 1.19531H17.4688ZM17.4688 11.8203C17.7344 11.8203 18 12.0859 18 12.3516V13.4141C18 13.7129 17.7344 13.9453 17.4688 13.9453H6.84375C6.54492 13.9453 6.3125 13.7129 6.3125 13.4141V12.3516C6.3125 12.0859 6.54492 11.8203 6.84375 11.8203H17.4688ZM1.53125 4.38281C1.36523 4.38281 1.26562 4.2832 1.26562 4.11719V3.58594C1.26562 3.45312 1.36523 3.32031 1.53125 3.32031H2.0625V1.19531H1.79688C1.63086 1.19531 1.53125 1.0957 1.53125 0.929688C1.53125 0.896484 1.53125 0.863281 1.53125 0.830078L1.79688 0.298828C1.86328 0.199219 1.92969 0.166016 2.0625 0.132812H2.85938C2.99219 0.132812 3.125 0.265625 3.125 0.398438V3.32031H3.65625C3.78906 3.32031 3.92188 3.45312 3.92188 3.58594V4.11719C3.92188 4.2832 3.78906 4.38281 3.65625 4.38281H1.53125ZM1.39844 9.69531C1.16602 9.69531 1 9.5625 1 9.33008V9.19727C1 7.63672 2.69336 7.33789 2.66016 6.90625C2.66016 6.67383 2.49414 6.60742 2.36133 6.60742C2.22852 6.60742 2.12891 6.67383 2.0625 6.74023C1.89648 6.90625 1.69727 6.97266 1.53125 6.80664L1.23242 6.60742C1.0332 6.44141 1 6.27539 1.13281 6.07617C1.36523 5.77734 1.76367 5.44531 2.49414 5.44531C3.125 5.44531 3.95508 5.81055 3.95508 6.77344C3.95508 8.03516 2.46094 8.30078 2.36133 8.63281H3.65625C3.78906 8.63281 3.92188 8.76562 3.92188 8.89844V9.42969C3.92188 9.5957 3.78906 9.69531 3.65625 9.69531H1.39844Z" fill="#CBD5E1"/>
</svg>
