<svg width="16" height="13" viewBox="0 0 16 13" fill="none" xmlns="http://www.w3.org/2000/svg">
<path d="M14.7383 0.617188C15.4238 0.617188 16.0039 1.19727 16.0039 1.88281V11.1641C16.0039 11.876 15.4238 12.4297 14.7383 12.4297H2.08203C1.37012 12.4297 0.816406 11.876 0.816406 11.1641V1.88281C0.816406 1.19727 1.37012 0.617188 2.08203 0.617188H14.7383ZM5.45703 3.14844C4.50781 3.14844 3.76953 3.91309 3.76953 4.83594C3.76953 5.78516 4.50781 6.52344 5.45703 6.52344C6.37988 6.52344 7.14453 5.78516 7.14453 4.83594C7.14453 3.91309 6.37988 3.14844 5.45703 3.14844ZM8.41016 9.39746V8.89648C8.41016 8.05273 7.59277 7.36719 6.61719 7.36719H6.48535C6.16895 7.52539 5.82617 7.57812 5.45703 7.57812C5.06152 7.57812 4.71875 7.52539 4.40234 7.36719H4.27051C3.29492 7.36719 2.50391 8.05273 2.50391 8.89648V9.39746C2.50391 9.6875 2.76758 9.89844 3.08398 9.89844H7.80371C8.14648 9.89844 8.41016 9.6875 8.41016 9.39746ZM14.3164 8V7.57812C14.3164 7.47266 14.2109 7.36719 14.1055 7.36719H10.3086C10.1768 7.36719 10.0977 7.47266 10.0977 7.57812V8C10.0977 8.13184 10.1768 8.21094 10.3086 8.21094H14.1055C14.2109 8.21094 14.3164 8.13184 14.3164 8ZM14.3164 6.3125V5.89062C14.3164 5.78516 14.2109 5.67969 14.1055 5.67969H10.3086C10.1768 5.67969 10.0977 5.78516 10.0977 5.89062V6.3125C10.0977 6.44434 10.1768 6.52344 10.3086 6.52344H14.1055C14.2109 6.52344 14.3164 6.44434 14.3164 6.3125ZM14.3164 4.625V4.20312C14.3164 4.09766 14.2109 3.99219 14.1055 3.99219H10.3086C10.1768 3.99219 10.0977 4.09766 10.0977 4.20312V4.625C10.0977 4.75684 10.1768 4.83594 10.3086 4.83594H14.1055C14.2109 4.83594 14.3164 4.75684 14.3164 4.625Z" fill="#334155"/>
</svg>
