<svg width="21" height="15" viewBox="0 0 21 15" fill="none" xmlns="http://www.w3.org/2000/svg">
<path opacity="0.65" d="M10.2969 4.01758C10.3633 3.95117 10.4629 3.91797 10.5625 3.91797C10.6289 3.91797 10.7285 3.95117 10.7949 4.01758L16.9375 9.03125V14.4766C16.9375 14.7754 16.6719 15.0078 16.4062 15.0078H12.6543C12.3887 15.0078 12.123 14.7754 12.123 14.4766V11.2891C12.123 11.0234 11.8906 10.7578 11.5918 10.7578H9.4668C9.20117 10.7578 8.93555 11.0234 8.93555 11.2891V14.4766C8.93555 14.7754 8.70312 15.0078 8.4375 15.0078H4.71875C4.41992 15.0078 4.1875 14.7754 4.1875 14.4766V9.06445L10.2969 4.01758ZM19.959 7.4375C20.0586 7.50391 20.125 7.63672 20.125 7.73633C20.125 7.83594 20.0918 7.93555 20.0254 8.00195L19.1621 9.03125C19.0957 9.13086 18.9961 9.16406 18.8633 9.16406C18.7637 9.16406 18.6641 9.13086 18.5977 9.06445L10.7949 2.65625C10.7285 2.58984 10.6289 2.55664 10.5625 2.55664C10.4629 2.55664 10.3633 2.58984 10.2969 2.65625L2.49414 9.06445C2.42773 9.13086 2.32812 9.16406 2.22852 9.16406C2.0957 9.16406 1.99609 9.13086 1.92969 9.03125L1.06641 8.00195C1.0332 7.93555 0.966797 7.83594 0.966797 7.73633C0.966797 7.63672 1.0332 7.50391 1.13281 7.4375L9.5332 0.498047C9.79883 0.298828 10.1641 0.166016 10.5625 0.166016C10.9277 0.166016 11.293 0.298828 11.5586 0.498047L14.5469 2.95508V0.564453C14.5469 0.332031 14.7129 0.166016 14.9453 0.166016H16.8047C17.0039 0.166016 17.2031 0.332031 17.2031 0.564453V5.14648L19.959 7.4375Z" fill="#8E99A7"/>
</svg>
