<svg width="12" height="15" viewBox="0 0 12 15" fill="none" xmlns="http://www.w3.org/2000/svg">
<path d="M10.8311 3.59668C10.9365 3.72852 11.0156 3.88672 11.0156 4.04492V4.20312H7.64062V0.828125H7.79883C7.95703 0.828125 8.11523 0.907227 8.24707 1.0127L10.8311 3.59668ZM6.79688 4.41406C6.79688 4.7832 7.06055 5.04688 7.42969 5.04688H11.0156V13.6953C11.0156 14.0645 10.7256 14.3281 10.3828 14.3281H1.52344C1.1543 14.3281 0.890625 14.0645 0.890625 13.6953V1.46094C0.890625 1.11816 1.1543 0.828125 1.52344 0.828125H6.79688V4.41406ZM2.57812 2.72656V3.14844C2.57812 3.28027 2.65723 3.35938 2.78906 3.35938H4.89844C5.00391 3.35938 5.10938 3.28027 5.10938 3.14844V2.72656C5.10938 2.62109 5.00391 2.51562 4.89844 2.51562H2.78906C2.65723 2.51562 2.57812 2.62109 2.57812 2.72656ZM2.57812 4.83594C2.57812 4.96777 2.65723 5.04688 2.78906 5.04688H4.89844C5.00391 5.04688 5.10938 4.96777 5.10938 4.83594V4.41406C5.10938 4.30859 5.00391 4.20312 4.89844 4.20312H2.78906C2.65723 4.20312 2.57812 4.30859 2.57812 4.41406V4.83594ZM6.375 11.7969C6.98145 11.7969 7.48242 11.2695 7.48242 10.6104C7.48242 10.083 7.13965 9.6084 6.66504 9.47656L5.47852 9.10742C5.32031 9.08105 5.24121 8.94922 5.24121 8.79102C5.24121 8.58008 5.37305 8.42188 5.55762 8.42188H6.2959C6.40137 8.42188 6.5332 8.47461 6.63867 8.52734C6.71777 8.58008 6.82324 8.58008 6.90234 8.50098L7.19238 8.21094C7.29785 8.13184 7.29785 7.97363 7.19238 7.89453C6.95508 7.70996 6.66504 7.60449 6.34863 7.60449V6.94531C6.34863 6.83984 6.26953 6.73438 6.1377 6.73438H5.71582C5.61035 6.73438 5.50488 6.83984 5.50488 6.94531V7.60449C4.89844 7.60449 4.39746 8.13184 4.39746 8.79102C4.39746 9.31836 4.74023 9.7666 5.21484 9.9248L6.40137 10.2939C6.55957 10.3203 6.63867 10.4521 6.63867 10.6104C6.63867 10.8213 6.50684 10.9531 6.32227 10.9531H5.58398C5.47852 10.9531 5.34668 10.9268 5.24121 10.874C5.16211 10.8213 5.05664 10.8213 4.97754 10.9004L4.6875 11.1904C4.58203 11.2695 4.58203 11.4277 4.6875 11.5068C4.9248 11.6914 5.21484 11.7969 5.53125 11.7969V12.4297C5.53125 12.5615 5.61035 12.6406 5.74219 12.6406H6.16406C6.26953 12.6406 6.375 12.5615 6.375 12.4297V11.7969Z" fill="#475569"/>
</svg>
