<svg width="14" height="14" viewBox="0 0 14 14" fill="none" xmlns="http://www.w3.org/2000/svg">
<path d="M7.42969 0.875C11.0156 0.875 13.9688 3.82812 13.9688 7.41406C13.9688 11.0264 11.0156 13.9531 7.42969 13.9531C3.81738 13.9531 0.890625 11.0264 0.890625 7.41406C0.890625 3.82812 3.81738 0.875 7.42969 0.875ZM7.42969 12.2656C10.0928 12.2656 12.2812 10.1035 12.2812 7.41406C12.2812 4.75098 10.0928 2.5625 7.42969 2.5625C4.74023 2.5625 2.57812 4.75098 2.57812 7.41406C2.57812 10.1035 4.74023 12.2656 7.42969 12.2656ZM7.42969 4.03906C9.27539 4.03906 10.8047 5.56836 10.8047 7.41406C10.8047 9.28613 9.27539 10.7891 7.42969 10.7891C5.55762 10.7891 4.05469 9.28613 4.05469 7.41406C4.05469 5.56836 5.55762 4.03906 7.42969 4.03906ZM7.42969 9.10156C8.35254 9.10156 9.11719 8.36328 9.11719 7.41406C9.11719 6.49121 8.35254 5.72656 7.42969 5.72656C6.48047 5.72656 5.74219 6.49121 5.74219 7.41406C5.74219 8.36328 6.48047 9.10156 7.42969 9.10156Z" fill="#475569"/>
</svg>
