<svg width="18" height="14" viewBox="0 0 18 14" fill="none" xmlns="http://www.w3.org/2000/svg">
<path d="M14.1797 9.60938C14.2852 9.60938 14.3906 9.71484 14.3906 9.82031V11.0859C14.3906 11.2178 14.2852 11.2969 14.1797 11.2969H4.47656C4.34473 11.2969 4.26562 11.2178 4.26562 11.0859V9.82031C4.26562 9.71484 4.37109 9.60938 4.47656 9.60938H14.1797ZM14.1797 12.1406C14.2852 12.1406 14.3906 12.2461 14.3906 12.3516V13.6172C14.3906 13.749 14.2852 13.8281 14.1797 13.8281H4.47656C4.34473 13.8281 4.26562 13.749 4.26562 13.6172V12.3516C4.26562 12.2461 4.34473 12.1406 4.47656 12.1406H14.1797ZM14.1797 7.07812C14.2852 7.07812 14.3906 7.18359 14.3906 7.28906V8.55469C14.3906 8.68652 14.2852 8.76562 14.1797 8.76562H4.47656C4.37109 8.76562 4.26562 8.68652 4.26562 8.55469V7.28906C4.26562 7.18359 4.37109 7.07812 4.47656 7.07812H14.1797ZM16.9746 3.41309C17.4492 3.62402 17.7656 4.07227 17.7656 4.59961V13.6172C17.7656 13.749 17.6602 13.8281 17.5547 13.8281H15.4453C15.3135 13.8281 15.2344 13.749 15.2344 13.6172V7.07812C15.2344 6.62988 14.8389 6.23438 14.3643 6.23438H4.26562C3.79102 6.23438 3.42188 6.62988 3.42188 7.07812V13.6172C3.42188 13.749 3.31641 13.8281 3.21094 13.8281H1.10156C0.969727 13.8281 0.890625 13.749 0.890625 13.6172V4.59961C0.890625 4.07227 1.18066 3.62402 1.65527 3.41309L8.82715 0.433594C8.98535 0.380859 9.14355 0.354492 9.30176 0.354492C9.48633 0.354492 9.64453 0.380859 9.80273 0.433594L16.9746 3.41309Z" fill="#475569"/>
</svg>
