<svg width="15" height="18" viewBox="0 0 15 18" fill="none" xmlns="http://www.w3.org/2000/svg">
<path opacity="0.65" d="M14.875 12.0234C14.875 12.2891 14.7422 12.5215 14.5762 12.6543C14.4102 13.1523 14.4102 14.6133 14.5762 15.1445C14.7422 15.2773 14.875 15.5098 14.875 15.7422V16.2734C14.875 16.7383 14.5098 17.0703 14.0781 17.0703H3.1875C1.42773 17.0703 0 15.6426 0 13.8828V3.25781C0 1.49805 1.42773 0.0703125 3.1875 0.0703125H14.0781C14.5098 0.0703125 14.875 0.435547 14.875 0.867188V12.0234ZM4.25 4.51953V5.18359C4.25 5.31641 4.31641 5.38281 4.44922 5.38281H11.4883C11.5879 5.38281 11.6875 5.31641 11.6875 5.18359V4.51953C11.6875 4.41992 11.5879 4.32031 11.4883 4.32031H4.44922C4.31641 4.32031 4.25 4.41992 4.25 4.51953ZM4.25 6.64453V7.30859C4.25 7.44141 4.31641 7.50781 4.44922 7.50781H11.4883C11.5879 7.50781 11.6875 7.44141 11.6875 7.30859V6.64453C11.6875 6.54492 11.5879 6.44531 11.4883 6.44531H4.44922C4.31641 6.44531 4.25 6.54492 4.25 6.64453ZM12.6504 14.9453C12.584 14.3809 12.584 13.418 12.6504 12.8203H3.1875C2.58984 12.8203 2.125 13.3184 2.125 13.8828C2.125 14.4805 2.58984 14.9453 3.1875 14.9453H12.6504Z" fill="#CBD5E1"/>
</svg>
