<svg width="15" height="13" viewBox="0 0 15 13" fill="none" xmlns="http://www.w3.org/2000/svg">
<path d="M13.125 12.3203H2.15625C1.44434 12.3203 0.890625 11.7666 0.890625 11.0547V1.77344C0.890625 1.08789 1.44434 0.507812 2.15625 0.507812H13.125C13.8105 0.507812 14.3906 1.08789 14.3906 1.77344V11.0547C14.3906 11.7666 13.8105 12.3203 13.125 12.3203ZM4.26562 2.82812C3.65918 2.82812 3.21094 3.30273 3.21094 3.88281C3.21094 4.48926 3.65918 4.9375 4.26562 4.9375C4.8457 4.9375 5.32031 4.48926 5.32031 3.88281C5.32031 3.30273 4.8457 2.82812 4.26562 2.82812ZM4.26562 5.35938C3.65918 5.35938 3.21094 5.83398 3.21094 6.41406C3.21094 7.02051 3.65918 7.46875 4.26562 7.46875C4.8457 7.46875 5.32031 7.02051 5.32031 6.41406C5.32031 5.83398 4.8457 5.35938 4.26562 5.35938ZM4.26562 7.89062C3.65918 7.89062 3.21094 8.36523 3.21094 8.94531C3.21094 9.55176 3.65918 10 4.26562 10C4.8457 10 5.32031 9.55176 5.32031 8.94531C5.32031 8.36523 4.8457 7.89062 4.26562 7.89062ZM11.8594 4.30469V3.46094C11.8594 3.30273 11.7012 3.14453 11.543 3.14453H6.26953C6.08496 3.14453 5.95312 3.30273 5.95312 3.46094V4.30469C5.95312 4.48926 6.08496 4.62109 6.26953 4.62109H11.543C11.7012 4.62109 11.8594 4.48926 11.8594 4.30469ZM11.8594 6.83594V5.99219C11.8594 5.83398 11.7012 5.67578 11.543 5.67578H6.26953C6.08496 5.67578 5.95312 5.83398 5.95312 5.99219V6.83594C5.95312 7.02051 6.08496 7.15234 6.26953 7.15234H11.543C11.7012 7.15234 11.8594 7.02051 11.8594 6.83594ZM11.8594 9.36719V8.52344C11.8594 8.36523 11.7012 8.20703 11.543 8.20703H6.26953C6.08496 8.20703 5.95312 8.36523 5.95312 8.52344V9.36719C5.95312 9.55176 6.08496 9.68359 6.26953 9.68359H11.543C11.7012 9.68359 11.8594 9.55176 11.8594 9.36719Z" fill="#475569"/>
</svg>
