<svg width="18" height="11" viewBox="0 0 18 11" fill="none" xmlns="http://www.w3.org/2000/svg">
<path d="M16.9219 0.679688C17.3701 0.679688 17.7656 1.0752 17.7656 1.52344V9.96094C17.7656 10.4355 17.3701 10.8047 16.9219 10.8047H1.73438C1.25977 10.8047 0.890625 10.4355 0.890625 9.96094V1.52344C0.890625 1.0752 1.25977 0.679688 1.73438 0.679688H16.9219ZM2.15625 9.53906H3.84375C3.84375 8.61621 3.0791 7.85156 2.15625 7.85156V9.53906ZM2.15625 3.63281C3.0791 3.63281 3.84375 2.89453 3.84375 1.94531H2.15625V3.63281ZM9.32812 8.27344C10.4883 8.27344 11.4375 7.16602 11.4375 5.74219C11.4375 4.34473 10.4883 3.21094 9.32812 3.21094C8.1416 3.21094 7.21875 4.34473 7.21875 5.74219C7.21875 7.16602 8.1416 8.27344 9.32812 8.27344ZM16.5 9.53906V7.85156C15.5508 7.85156 14.8125 8.61621 14.8125 9.53906H16.5ZM16.5 3.63281V1.94531H14.8125C14.8125 2.89453 15.5508 3.63281 16.5 3.63281Z" fill="#475569"/>
</svg>
