<svg width="17" height="14" viewBox="0 0 17 14" fill="none" xmlns="http://www.w3.org/2000/svg">
<path d="M14.1797 8.60156H6.4541L6.63867 9.44531H13.7051C14.1006 9.44531 14.417 9.84082 14.3115 10.2363L14.1797 10.8691C14.6807 11.1064 15.0234 11.6074 15.0234 12.1875C15.0234 13.0312 14.3379 13.6904 13.5205 13.6641C12.7295 13.6641 12.0703 13.0312 12.0703 12.2402C12.0439 11.8184 12.2285 11.4229 12.4922 11.1328H6.98145C7.24512 11.4229 7.42969 11.792 7.42969 12.1875C7.42969 13.0312 6.71777 13.7168 5.87402 13.6641C5.10938 13.6377 4.50293 13.0312 4.47656 12.293C4.42383 11.6865 4.74023 11.1855 5.21484 10.9219L3.34277 1.85156H1.52344C1.1543 1.85156 0.890625 1.58789 0.890625 1.21875V0.796875C0.890625 0.454102 1.1543 0.164062 1.52344 0.164062H4.21289C4.50293 0.164062 4.7666 0.401367 4.8457 0.691406L5.08301 1.85156H15.4189C15.8408 1.85156 16.1309 2.24707 16.0518 2.64258L14.8125 8.12695C14.7334 8.41699 14.4697 8.60156 14.1797 8.60156ZM11.6484 4.59375H10.3828V3.53906C10.3828 3.32812 10.1719 3.11719 9.96094 3.11719H9.53906C9.30176 3.11719 9.11719 3.32812 9.11719 3.53906V4.59375H7.85156C7.61426 4.59375 7.42969 4.80469 7.42969 5.01562V5.4375C7.42969 5.6748 7.61426 5.85938 7.85156 5.85938H9.11719V6.91406C9.11719 7.15137 9.30176 7.33594 9.53906 7.33594H9.96094C10.1719 7.33594 10.3828 7.15137 10.3828 6.91406V5.85938H11.6484C11.8594 5.85938 12.0703 5.6748 12.0703 5.4375V5.01562C12.0703 4.80469 11.8594 4.59375 11.6484 4.59375Z" fill="#475569"/>
</svg>
