<svg width="17" height="15" viewBox="0 0 17 15" fill="none" xmlns="http://www.w3.org/2000/svg">
<path opacity="0.65" d="M2.65625 11.2891C2.92188 11.2891 3.1875 11.5547 3.1875 11.8203V13.9453C3.1875 14.2441 2.92188 14.4766 2.65625 14.4766H0.53125C0.232422 14.4766 0 14.2441 0 13.9453V11.8203C0 11.5547 0.232422 11.2891 0.53125 11.2891H2.65625ZM2.65625 0.664062C2.92188 0.664062 3.1875 0.929688 3.1875 1.19531V3.32031C3.1875 3.61914 2.92188 3.85156 2.65625 3.85156H0.53125C0.232422 3.85156 0 3.61914 0 3.32031V1.19531C0 0.929688 0.232422 0.664062 0.53125 0.664062H2.65625ZM2.65625 5.97656C2.92188 5.97656 3.1875 6.24219 3.1875 6.50781V8.63281C3.1875 8.93164 2.92188 9.16406 2.65625 9.16406H0.53125C0.232422 9.16406 0 8.93164 0 8.63281V6.50781C0 6.24219 0.232422 5.97656 0.53125 5.97656H2.65625ZM16.4688 11.8203C16.7344 11.8203 17 12.0859 17 12.3516V13.4141C17 13.7129 16.7344 13.9453 16.4688 13.9453H5.84375C5.54492 13.9453 5.3125 13.7129 5.3125 13.4141V12.3516C5.3125 12.0859 5.54492 11.8203 5.84375 11.8203H16.4688ZM16.4688 1.19531C16.7344 1.19531 17 1.46094 17 1.72656V2.78906C17 3.08789 16.7344 3.32031 16.4688 3.32031H5.84375C5.54492 3.32031 5.3125 3.08789 5.3125 2.78906V1.72656C5.3125 1.46094 5.54492 1.19531 5.84375 1.19531H16.4688ZM16.4688 6.50781C16.7344 6.50781 17 6.77344 17 7.03906V8.10156C17 8.40039 16.7344 8.63281 16.4688 8.63281H5.84375C5.54492 8.63281 5.3125 8.40039 5.3125 8.10156V7.03906C5.3125 6.77344 5.54492 6.50781 5.84375 6.50781H16.4688Z" fill="#CBD5E1"/>
</svg>
