<svg width="17" height="13" viewBox="0 0 17 13" fill="none" xmlns="http://www.w3.org/2000/svg">
<path opacity="0.65" d="M16.6016 10.8203C16.8008 10.8203 17 11.0195 17 11.2188V12.5469C17 12.7793 16.8008 12.9453 16.6016 12.9453H0.398438C0.166016 12.9453 0 12.7793 0 12.5469V0.59375C0 0.394531 0.166016 0.195312 0.398438 0.195312H1.72656C1.92578 0.195312 2.125 0.394531 2.125 0.59375V10.8203H16.6016ZM12.3516 3.38281C12.5508 3.25 12.8164 3.31641 12.9492 3.54883L15.9375 9.75781H3.1875V6.30469L6.04297 1.52344C6.20898 1.25781 6.54102 1.25781 6.70703 1.49023L9.5625 5.24219L12.3516 3.38281Z" fill="#CBD5E1"/>
</svg>
