<svg width="15" height="11" viewBox="0 0 15 11" fill="none" xmlns="http://www.w3.org/2000/svg">
<path d="M13.9688 8.78906C14.1797 8.78906 14.3906 9 14.3906 9.21094V10.0547C14.3906 10.292 14.1797 10.4766 13.9688 10.4766H1.73438C1.25977 10.4766 0.890625 10.1074 0.890625 9.63281V0.773438C0.890625 0.5625 1.0752 0.351562 1.3125 0.351562H2.15625C2.36719 0.351562 2.57812 0.5625 2.57812 0.773438V8.78906H13.9688ZM13.125 1.19531C13.3359 1.19531 13.5469 1.40625 13.5205 1.61719V4.75488C13.5205 5.30859 12.8613 5.59863 12.4658 5.20312L11.5957 4.33301L9.06445 6.86426C8.74805 7.20703 8.19434 7.20703 7.87793 6.86426L5.95312 4.93945L4.71387 6.15234C4.55566 6.31055 4.29199 6.31055 4.13379 6.15234L3.52734 5.5459C3.36914 5.3877 3.36914 5.12402 3.52734 4.96582L5.34668 3.14648C5.66309 2.80371 6.2168 2.80371 6.5332 3.14648L8.48438 5.07129L10.4092 3.14648L9.53906 2.27637C9.14355 1.88086 9.43359 1.19531 9.9873 1.19531H13.125Z" fill="#2563EB"/>
</svg>
