<svg width="17" height="17" viewBox="0 0 17 17" fill="none" xmlns="http://www.w3.org/2000/svg">
<path d="M16.725 14.0859C17.0063 14.3984 17.0063 14.8672 16.6938 15.1484L15.8188 16.0234C15.5375 16.3359 15.0688 16.3359 14.7563 16.0234L11.6625 12.9297C11.5063 12.7734 11.4438 12.5859 11.4438 12.3984V11.8672C10.3188 12.7422 8.94375 13.2422 7.44375 13.2422C3.85 13.2422 0.94375 10.3359 0.94375 6.74219C0.94375 3.17969 3.85 0.242188 7.44375 0.242188C11.0063 0.242188 13.9438 3.17969 13.9438 6.74219C13.9438 8.27344 13.4125 9.64844 12.5688 10.7422H13.0688C13.2563 10.7422 13.4438 10.8359 13.6 10.9609L16.725 14.0859ZM7.44375 10.7422C9.63125 10.7422 11.4438 8.96094 11.4438 6.74219C11.4438 4.55469 9.63125 2.74219 7.44375 2.74219C5.225 2.74219 3.44375 4.55469 3.44375 6.74219C3.44375 8.96094 5.225 10.7422 7.44375 10.7422Z" fill="#475569"/>
</svg>
