<svg width="17" height="17" viewBox="0 0 17 17" fill="none" xmlns="http://www.w3.org/2000/svg">
<path opacity="0.65" d="M16.1699 10.5625C16.3359 10.6621 16.4023 10.8613 16.3691 11.0273C15.9707 12.2227 15.373 13.2852 14.543 14.1816C14.4102 14.3145 14.2109 14.3477 14.0449 14.248L12.6172 13.4512C12.0195 13.9492 11.3555 14.3477 10.625 14.6133V16.2402C10.625 16.4062 10.4922 16.5723 10.293 16.6387C9.13086 16.8711 7.90234 16.9043 6.67383 16.6387C6.50781 16.5723 6.375 16.4062 6.375 16.2402V14.6133C5.61133 14.3477 4.94727 13.9492 4.34961 13.4512L2.92188 14.248C2.75586 14.3477 2.55664 14.3145 2.42383 14.1816C1.62695 13.2852 0.996094 12.2227 0.630859 11.0273C0.564453 10.8613 0.630859 10.6621 0.796875 10.5625L2.22461 9.76562C2.0918 8.96875 2.0918 8.20508 2.22461 7.4082L0.796875 6.61133C0.630859 6.51172 0.564453 6.3125 0.630859 6.14648C0.996094 4.95117 1.62695 3.88867 2.42383 2.99219C2.55664 2.85938 2.75586 2.82617 2.92188 2.92578L4.34961 3.75586C4.94727 3.22461 5.61133 2.82617 6.375 2.56055V0.933594C6.375 0.767578 6.47461 0.601562 6.67383 0.568359C7.83594 0.302734 9.06445 0.269531 10.293 0.568359C10.4922 0.601562 10.625 0.767578 10.625 0.933594V2.56055C11.3555 2.82617 12.0195 3.22461 12.6172 3.72266L14.0449 2.92578C14.2109 2.82617 14.4102 2.85938 14.543 2.99219C15.3398 3.88867 15.9707 4.95117 16.3359 6.14648C16.4023 6.3125 16.3359 6.51172 16.1699 6.61133L14.7422 7.4082C14.9082 8.20508 14.9082 8.96875 14.7422 9.76562L16.1699 10.5625ZM8.5 11.2266C9.96094 11.2266 11.1562 10.0645 11.1562 8.57031C11.1562 7.10938 9.96094 5.91406 8.5 5.91406C7.00586 5.91406 5.84375 7.10938 5.84375 8.57031C5.84375 10.0645 7.00586 11.2266 8.5 11.2266Z" fill="#CBD5E1"/>
</svg>
